<svg width="24" height="24" viewBox="0 0 24 24" fill="none" xmlns="http://www.w3.org/2000/svg">
<g clip-path="url(#clip0_253_441)">
<path fill-rule="evenodd" clip-rule="evenodd" d="M9.67 13.3707L18.5586 22.2592C19.054 22.7546 19.8628 22.7546 20.3595 22.2592L22.088 20.5294C22.3288 20.2886 22.4616 19.9697 22.4616 19.6303C22.4616 19.2896 22.3288 18.9707 22.088 18.7298L13.3541 9.99589L13.4978 9.58808C14.2915 7.35464 13.7263 4.83245 12.0567 3.16285C10.5103 1.61779 8.24263 1.02523 6.16111 1.55894L9.56462 4.96247C9.97107 5.36754 10.1941 5.90812 10.1941 6.48427C10.1941 7.05904 9.97107 7.5996 9.56462 8.00607L8.18105 9.38963C7.34077 10.2272 5.97636 10.2272 5.13745 9.38963L1.73393 5.98612C1.20157 8.06764 1.79277 10.3353 3.33785 11.8817C4.88427 13.4282 7.1656 14.0358 9.28818 13.4719L9.67 13.3707ZM19.4577 24C18.7816 24 18.1056 23.7414 17.591 23.2268L9.25123 14.887C6.77421 15.4084 4.16717 14.6461 2.3703 12.8493C0.180659 10.6596 -0.440654 7.28485 0.822497 4.45338L1.22757 3.54468L6.105 8.42209C6.41017 8.7259 6.90832 8.7259 7.2135 8.42209L8.59708 7.03852C8.74488 6.88934 8.82562 6.69364 8.82562 6.48427C8.82562 6.27488 8.74487 6.07782 8.59708 5.93002L3.71966 1.05259L4.62836 0.647504C7.46121 -0.615646 10.836 0.00566616 13.0243 2.19394C14.9621 4.13314 15.6847 7.0084 14.9224 9.62913L23.0555 17.7623C23.555 18.2604 23.8301 18.9241 23.8301 19.6303C23.8301 20.3351 23.555 20.9988 23.0555 21.497L21.3271 23.2268C20.8112 23.7414 20.1351 24 19.4577 24Z" fill="#013237"/>
</g>
<defs>
<clipPath id="clip0_253_441">
<rect width="24" height="24" fill="white"/>
</clipPath>
</defs>
</svg>
