<svg width="428" height="434" viewBox="0 0 428 434" fill="none" xmlns="http://www.w3.org/2000/svg">
<g clip-path="url(#clip0_183_517)">
<path d="M135.552 116.99L66.3147 244.961C62.752 251.546 64.9474 259.634 71.2179 263.027L252.879 361.312C259.15 364.705 267.121 362.117 270.683 355.532L339.92 227.561M135.552 116.99L156.624 78.0424C160.186 71.4577 168.158 68.8699 174.428 72.2625L356.089 170.548C362.36 173.941 364.555 182.029 360.993 188.613L339.92 227.561M135.552 116.99L339.92 227.561" stroke="#FEFEFE" stroke-width="15" stroke-linejoin="round"/>
<path d="M221.391 66.8452L202.039 102.614" stroke="#FEFEFE" stroke-width="15" stroke-linecap="round" stroke-linejoin="round"/>
<path d="M334.929 128.274L315.577 164.042" stroke="#FEFEFE" stroke-width="15" stroke-linecap="round" stroke-linejoin="round"/>
<path d="M288.227 241.721L265.52 229.436" stroke="#FEFEFE" stroke-width="15" stroke-linecap="round" stroke-linejoin="round"/>
<path d="M249.523 313.258L226.816 300.972" stroke="#FEFEFE" stroke-width="15" stroke-linecap="round" stroke-linejoin="round"/>
<path d="M231.458 211.007L208.751 198.722" stroke="#FEFEFE" stroke-width="15" stroke-linecap="round" stroke-linejoin="round"/>
<path d="M192.754 282.544L170.047 270.258" stroke="#FEFEFE" stroke-width="15" stroke-linecap="round" stroke-linejoin="round"/>
<path d="M174.689 180.293L151.982 168.007" stroke="#FEFEFE" stroke-width="15" stroke-linecap="round" stroke-linejoin="round"/>
<path d="M135.985 251.83L113.277 239.544" stroke="#FEFEFE" stroke-width="15" stroke-linecap="round" stroke-linejoin="round"/>
<path d="M268.875 277.49L246.168 265.204" stroke="#FEFEFE" stroke-width="15" stroke-linecap="round" stroke-linejoin="round"/>
<path d="M212.106 246.775L189.399 234.49" stroke="#FEFEFE" stroke-width="15" stroke-linecap="round" stroke-linejoin="round"/>
<path d="M155.337 216.062L132.629 203.776" stroke="#FEFEFE" stroke-width="15" stroke-linecap="round" stroke-linejoin="round"/>
</g>
<defs>
<clipPath id="clip0_183_517">
<rect width="309.817" height="325.342" fill="white" transform="translate(154.816) rotate(28.415)"/>
</clipPath>
</defs>
</svg>
