<svg width="54" height="54" viewBox="0 0 54 54" fill="none" xmlns="http://www.w3.org/2000/svg">
<g clip-path="url(#clip0_102_332)">
<rect width="54" height="54" rx="27" fill="#013237"/>
<path d="M32.5798 31.32V33.48C32.5798 36.36 36.7198 37.62 36.7198 37.62C36.7198 37.62 31.9498 41.22 26.9998 41.22C22.0498 41.22 17.2798 37.62 17.2798 37.62C17.2798 37.62 21.4524 36.36 21.4198 33.48C21.3872 30.6 21.409 28.908 21.3872 23.9738C18.8074 20.63 18.973 18.3857 20.3837 16.8075C25.1098 11.52 37.9798 13.32 37.9798 13.32C37.9798 13.32 39.1807 26.2787 36.4498 30.06C35.2798 31.68 32.5798 31.32 32.5798 31.32Z" fill="url(#paint0_linear_102_332)"/>
<g style="mix-blend-mode:multiply">
<path d="M32.5798 31.32C28.6198 30.87 26.2798 29.16 26.2798 29.16C27.7571 31.3457 30.0086 32.8895 32.5798 33.48V31.32Z" fill="#FFDBC9"/>
</g>
<path d="M45.8999 43.0754C47.6135 46.5597 48.5999 54.5954 48.5999 54.5954H5.3999C5.3999 54.5954 6.38666 46.5588 8.0999 43.0754C9.81314 39.5921 19.8179 36.3612 19.8179 36.3612C21.7462 40.32 32.3293 40.32 34.1767 36.36C34.1767 36.36 44.1863 39.5912 45.8999 43.0754Z" fill="#4CA771"/>
<path d="M26.2798 50.04C26.2798 49.8976 26.322 49.7584 26.4011 49.64C26.4802 49.5216 26.5927 49.4293 26.7243 49.3748C26.8558 49.3203 27.0006 49.306 27.1402 49.3338C27.2799 49.3616 27.4082 49.4302 27.5089 49.5309C27.6096 49.6316 27.6782 49.7599 27.7059 49.8995C27.7337 50.0392 27.7195 50.184 27.665 50.3155C27.6105 50.4471 27.5182 50.5595 27.3998 50.6387C27.2814 50.7178 27.1422 50.76 26.9998 50.76C26.8088 50.76 26.6257 50.6841 26.4907 50.5491C26.3556 50.4141 26.2798 50.231 26.2798 50.04ZM26.2798 46.44C26.2798 46.2976 26.322 46.1584 26.4011 46.04C26.4802 45.9216 26.5927 45.8293 26.7243 45.7748C26.8558 45.7203 27.0006 45.706 27.1402 45.7338C27.2799 45.7616 27.4082 45.8302 27.5089 45.9309C27.6096 46.0316 27.6782 46.1599 27.7059 46.2995C27.7337 46.4392 27.7195 46.584 27.665 46.7155C27.6105 46.8471 27.5182 46.9595 27.3998 47.0387C27.2814 47.1178 27.1422 47.16 26.9998 47.16C26.8088 47.16 26.6257 47.0841 26.4907 46.9491C26.3556 46.8141 26.2798 46.631 26.2798 46.44ZM26.2798 42.84C26.2798 42.6976 26.322 42.5584 26.4011 42.44C26.4802 42.3216 26.5927 42.2293 26.7243 42.1748C26.8558 42.1203 27.0006 42.106 27.1402 42.1338C27.2799 42.1616 27.4082 42.2302 27.5089 42.3309C27.6096 42.4316 27.6782 42.5599 27.7059 42.6995C27.7337 42.8392 27.7195 42.984 27.665 43.1155C27.6105 43.2471 27.5182 43.3595 27.3998 43.4387C27.2814 43.5178 27.1422 43.56 26.9998 43.56C26.8088 43.56 26.6257 43.4841 26.4907 43.3491C26.3556 43.2141 26.2798 43.031 26.2798 42.84V42.84Z" fill="white"/>
<path d="M23.6077 18.5776C23.0353 18.086 22.3398 17.755 21.3567 18.2659C19.0258 19.476 20.7898 24.12 22.8598 24.12C23.3998 24.12 23.6684 25.816 21.2641 27C21.2641 25.11 18.3841 20.43 18.1321 16.169C15.2341 15.0899 15.9541 10.7723 17.9437 10.7723C17.6262 6.81443 23.9641 4.76999 26.4183 7.04141C28.9141 4.04999 35.2141 5.57999 35.5945 8.17523C39.9265 5.86277 42.7741 12.51 38.7178 15.0905C37.0487 16.1525 33.1441 16.5566 27.5078 16.5566C26.6569 16.5566 26.1803 16.7679 26.4183 17.82C26.8789 19.8587 25.8095 21.1428 23.6077 18.5776Z" fill="url(#paint1_linear_102_332)"/>
</g>
<defs>
<linearGradient id="paint0_linear_102_332" x1="27.7613" y1="13.0247" x2="27.7613" y2="41.22" gradientUnits="userSpaceOnUse">
<stop stop-color="#FFD4B3"/>
<stop offset="1" stop-color="#FFDCC2"/>
</linearGradient>
<linearGradient id="paint1_linear_102_332" x1="28.4369" y1="27" x2="28.4369" y2="5.39954" gradientUnits="userSpaceOnUse">
<stop stop-color="#643808"/>
<stop offset="1" stop-color="#70341A"/>
</linearGradient>
<clipPath id="clip0_102_332">
<rect width="54" height="54" rx="27" fill="white"/>
</clipPath>
</defs>
</svg>
