<?xml version="1.0" encoding="UTF-8"?>
<svg version="1.1" xmlns="http://www.w3.org/2000/svg" width="512" height="512">
<path d="M0 0 C1.04414063 0.55429687 2.08828125 1.10859375 3.1640625 1.6796875 C36.17330164 19.88267162 62.96082435 53.00777478 74 89 C80.82255802 113.51540558 82.13813842 141.37505217 75 166 C74.67854004 167.1439624 74.67854004 167.1439624 74.35058594 168.31103516 C71.1285453 179.51782717 66.55954335 189.77360957 61 200 C60.50862549 200.92039063 60.50862549 200.92039063 60.00732422 201.859375 C55.39318826 210.46691114 50.11288482 218.38311802 44 226 C43.36481445 226.804375 42.72962891 227.60875 42.07519531 228.4375 C36.62776767 235.23896816 30.81122191 241.4933624 24.625 247.625 C23.75617188 248.5015625 22.88734375 249.378125 21.9921875 250.28125 C6.67029078 265.55781566 -11.13347863 278.44334284 -30 289 C-30.69077637 289.39251953 -31.38155273 289.78503906 -32.09326172 290.18945312 C-59.75254407 305.79688184 -89.27201542 314.66874632 -120.36083984 320.33007812 C-171.7182205 329.78430143 -222.05745727 344.58174711 -266.00708008 373.69335938 C-267.27351261 374.52368486 -268.55609585 375.33025269 -269.8581543 376.10351562 C-273.00871304 377.97974356 -273.00871304 377.97974356 -274.77734375 381.078125 C-274.85662109 382.15320313 -274.85662109 382.15320313 -274.9375 383.25 C-276.58369989 393.5096029 -288.532198 401.67889694 -295.65234375 408.78515625 C-296.87885354 410.01234122 -298.10521498 411.23967447 -299.33143616 412.46714783 C-301.89080528 415.02798381 -304.45195493 417.58702171 -307.0144043 420.14477539 C-310.28010508 423.40477954 -313.54129475 426.66925365 -316.80115414 429.93509769 C-319.32938627 432.46696285 -321.86001939 434.99641744 -324.39135933 437.52517509 C-325.59403192 438.72718599 -326.79597709 439.92992519 -327.9971447 441.13344002 C-333.60829955 446.75315461 -339.21398738 452.31854818 -345.25715637 457.47953796 C-348.18293773 460.03199844 -350.89387625 462.78975966 -353.6171875 465.5546875 C-354.20041779 466.14170441 -354.78364807 466.72872131 -355.384552 467.33352661 C-357.21719813 469.17822821 -359.04650295 471.02618631 -360.875 472.875 C-363.30703186 475.33359071 -365.74234477 477.78886303 -368.1796875 480.2421875 C-368.73486053 480.80565887 -369.29003357 481.36913025 -369.86203003 481.94967651 C-373.00623883 485.11406851 -374.67598562 486.7881577 -379.125 487.5 C-383.21890278 486.97175448 -383.86352257 486.59757198 -386.74438477 483.95825195 C-387.44290558 483.3206192 -388.14142639 482.68298645 -388.8611145 482.02603149 C-392.27913643 478.78835464 -395.64077103 475.50197448 -398.96484375 472.16796875 C-399.68362198 471.45014725 -400.40240021 470.73232574 -401.14295959 469.99275208 C-402.6457693 468.49061748 -404.14733866 466.98724103 -405.64770508 465.48266602 C-407.9521476 463.17281804 -410.26194389 460.86841909 -412.57226562 458.56445312 C-414.0367795 457.09927928 -415.50098358 455.63379571 -416.96484375 454.16796875 C-417.65642075 453.47841599 -418.34799774 452.78886322 -419.06053162 452.07841492 C-419.69531937 451.44047501 -420.33010712 450.8025351 -420.98413086 450.14526367 C-421.54402206 449.58457687 -422.10391327 449.02389008 -422.68077087 448.44621277 C-425.22031367 445.66222388 -425.52272537 442.91994702 -425.46791077 439.19346619 C-424.88760126 436.4730986 -423.8938503 435.31518157 -422.01342773 433.27954102 C-421.37533173 432.58506866 -420.73723572 431.89059631 -420.07980347 431.17507935 C-416.52424947 427.45664528 -412.92787045 423.78548146 -409.28515625 420.15234375 C-408.47058456 419.33681534 -407.65601288 418.52128693 -406.8167572 417.68104553 C-405.10440807 415.96801992 -403.39081158 414.25624035 -401.67602539 412.5456543 C-399.06997985 409.94496448 -396.46931478 407.33898044 -393.86914062 404.73242188 C-392.19563301 403.05957514 -390.52181518 401.38703866 -388.84765625 399.71484375 C-387.69572533 398.55987648 -387.69572533 398.55987648 -386.52052307 397.38157654 C-383.13678 394.0122942 -379.73596946 390.72726231 -376.10498047 387.62475586 C-371.43911522 383.60188907 -367.1916704 379.19618732 -362.91023445 374.77144241 C-360.41345051 372.19684692 -357.8975079 369.64103687 -355.38476562 367.08203125 C-352.20955055 363.84682996 -349.04043908 360.60632051 -345.89282227 357.34423828 C-343.32700134 354.68613127 -340.74181822 352.0482804 -338.14275932 349.4226799 C-337.16316471 348.42589695 -336.19074465 347.42200626 -335.22606087 346.41078568 C-326.76818781 337.55700707 -326.76818781 337.55700707 -321.01708984 337.0793457 C-320.31200287 337.11292679 -319.60691589 337.14650787 -318.88046265 337.18110657 C-316.86917997 337.17502392 -316.86917997 337.17502392 -315.36087036 335.53022766 C-313.91451733 333.61531107 -312.73487054 331.65647893 -311.5625 329.5625 C-311.10423828 328.79824707 -310.64597656 328.03399414 -310.17382812 327.24658203 C-308.74979403 324.84854388 -307.37321934 322.42741789 -306 320 C-305.15605143 318.55794736 -304.31103376 317.11651977 -303.46484375 315.67578125 C-279.55091878 274.35402975 -266.21332463 228.83189825 -257.9375 182.0625 C-255.8376941 170.20083945 -253.51571157 158.53569095 -250 147 C-249.7623291 146.19836426 -249.5246582 145.39672852 -249.27978516 144.57080078 C-238.394868 108.26677072 -219.12443137 74.22891005 -193.28515625 46.47265625 C-191.37096117 44.40139901 -189.55412389 42.29085299 -187.75 40.125 C-141.50674193 -12.69363976 -63.17420703 -34.9795971 0 0 Z M-92 23 C-86.72 28.28 -81.44 33.56 -76 39 C-70.59494815 34.41796421 -70.59494815 34.41796421 -65.47265625 29.60546875 C-64.90869141 29.04279297 -64.34472656 28.48011719 -63.76367188 27.90039062 C-63.20228516 27.33513672 -62.64089844 26.76988281 -62.0625 26.1875 C-61.47404297 25.60291016 -60.88558594 25.01832031 -60.27929688 24.41601562 C-57.36577239 22.08377 -57.36577239 22.08377 -56 19 C-59.60409539 18.94093881 -63.20806309 18.90605361 -66.8125 18.875 C-67.81732422 18.85824219 -68.82214844 18.84148438 -69.85742188 18.82421875 C-81.77535753 18.33561295 -81.77535753 18.33561295 -92 23 Z M-37.70556641 26.47851562 C-38.84270817 27.61597526 -39.97433228 28.75896718 -41.1015625 29.90625 C-41.69802582 30.50554321 -42.29448914 31.10483643 -42.9090271 31.72229004 C-44.81907912 33.64356607 -46.72207327 35.57166895 -48.625 37.5 C-49.91620881 38.80123574 -51.20786974 40.10202301 -52.5 41.40234375 C-55.67194252 44.5963761 -58.83757072 47.79654938 -62 51 C-60.34763349 55.29067546 -57.1094793 58.1429553 -53.8984375 61.296875 C-53.30197418 61.89050842 -52.70551086 62.48414185 -52.0909729 63.09576416 C-50.1903019 64.98526627 -48.28278526 66.86768392 -46.375 68.75 C-45.08287532 70.03209065 -43.79120324 71.31463761 -42.5 72.59765625 C-39.33855521 75.73708432 -36.1709539 78.87017801 -33 82 C-28.09526099 77.88670129 -23.4780472 73.61457539 -18.97265625 69.0703125 C-18.02198524 68.11751907 -18.02198524 68.11751907 -17.05210876 67.14547729 C-15.05318594 65.14101284 -13.05779216 63.13307786 -11.0625 61.125 C-9.69749867 59.75497611 -8.3322664 58.38518226 -6.96679688 57.015625 C-3.64185789 53.67973457 -0.32007647 50.34072964 3 47 C-5.48212778 36.13532691 -19.95622235 28.18336295 -33 24 C-35.36574577 23.77483681 -35.36574577 23.77483681 -37.70556641 26.47851562 Z M-148 52 C-142.47349666 58.74080425 -136.30550441 64.8071129 -130.125 70.9375 C-129.04403726 72.01343727 -127.96330617 73.08960731 -126.8828125 74.16601562 C-124.25787359 76.78003292 -121.62981372 79.39088596 -119 82 C-112.25919575 76.47349666 -106.1928871 70.30550441 -100.0625 64.125 C-98.98656273 63.04403726 -97.91039269 61.96330617 -96.83398438 60.8828125 C-94.21996708 58.25787359 -91.60911404 55.62981372 -89 53 C-90.53652003 49.36120325 -92.72420759 47.01785354 -95.5 44.234375 C-96.386875 43.34492187 -97.27375 42.45546875 -98.1875 41.5390625 C-99.115625 40.61867188 -100.04375 39.69828125 -101 38.75 C-101.928125 37.81414063 -102.85625 36.87828125 -103.8125 35.9140625 C-104.699375 35.02976562 -105.58625 34.14546875 -106.5 33.234375 C-107.3146875 32.42194336 -108.129375 31.60951172 -108.96875 30.77246094 C-116.67680125 24.04644507 -141.74733534 46.70639067 -148 52 Z M13.46871948 61.29077148 C12.86915436 61.89477783 12.26958923 62.49878418 11.65185547 63.12109375 C10.97130096 63.80179932 10.29074646 64.48250488 9.58956909 65.18383789 C8.85618317 65.92754639 8.12279724 66.67125488 7.3671875 67.4375 C6.23943405 68.56949829 6.23943405 68.56949829 5.08889771 69.72436523 C2.67955064 72.14494184 0.27723516 74.57236718 -2.125 77 C-3.75344911 78.63847531 -5.38234952 80.2765022 -7.01171875 81.9140625 C-11.01307136 85.93751226 -15.00866647 89.96661228 -19 94 C-17.07139535 98.21676405 -14.17029862 101.08321791 -10.8984375 104.296875 C-10.30197418 104.89050842 -9.70551086 105.48414185 -9.0909729 106.09576416 C-7.1903019 107.98526627 -5.28278526 109.86768392 -3.375 111.75 C-2.08287532 113.03209065 -0.79120324 114.31463761 0.5 115.59765625 C3.66144479 118.73708432 6.8290461 121.87017801 10 125 C15.71653542 120.16217299 21.20166885 115.14466065 26.55517578 109.90478516 C27.52578099 108.96107742 28.50347717 108.02461313 29.48779297 107.09521484 C30.92496499 105.73690912 32.33791028 104.35311285 33.75 102.96875 C34.59046875 102.15857422 35.4309375 101.34839844 36.296875 100.51367188 C38.31131308 98.07962125 38.31131308 98.07962125 37.86132812 94.91625977 C36.77090468 91.22433571 35.24554665 87.85411109 33.5 84.4375 C33.14977783 83.74438721 32.79955566 83.05127441 32.4387207 82.3371582 C28.46671213 74.67791995 23.66830717 65.59832092 17 60 C14.9210784 59.78516423 14.9210784 59.78516423 13.46871948 61.29077148 Z M-163.7578125 66.703125 C-169.61075806 73.00035356 -174.89468919 79.62850175 -180.0625 86.5 C-180.72975098 87.38461914 -181.39700195 88.26923828 -182.08447266 89.18066406 C-185.60940376 93.7825155 -185.60940376 93.7825155 -188 99 C-179.42 107.58 -170.84 116.16 -162 125 C-157.5456081 121.1819498 -153.39223603 117.51309612 -149.28515625 113.3828125 C-148.53424965 112.62978348 -148.53424965 112.62978348 -147.76817322 111.86154175 C-146.19721402 110.28506329 -144.62980123 108.70511427 -143.0625 107.125 C-141.98656273 106.04403726 -140.91039269 104.96330617 -139.83398438 103.8828125 C-137.21996708 101.25787359 -134.60911404 98.62981372 -132 96 C-133.65367115 91.72113402 -136.86979574 88.8599365 -140.06640625 85.703125 C-140.66049789 85.10949158 -141.25458954 84.51585815 -141.86668396 83.90423584 C-143.11928717 82.65464684 -144.37431307 81.40748226 -145.6315918 80.16259766 C-147.56425072 78.24826588 -149.48871713 76.32598142 -151.41210938 74.40234375 C-152.62973606 73.1896298 -153.84781918 71.97737392 -155.06640625 70.765625 C-155.6455629 70.18758118 -156.22471954 69.60953735 -156.82142639 69.01397705 C-160.06184903 64.87481123 -160.06184903 64.87481123 -163.7578125 66.703125 Z M-78.77563477 67.66210938 C-80.00012665 68.88676057 -81.22184708 70.11418652 -82.44140625 71.34375 C-83.08367661 71.9874353 -83.72594696 72.63112061 -84.38768005 73.29431152 C-86.44830012 75.36055079 -88.50542525 77.43023169 -90.5625 79.5 C-91.95485012 80.89736264 -93.34742525 82.29450111 -94.74023438 83.69140625 C-98.16277738 87.12500373 -101.58218882 90.56169268 -105 94 C-103.07139535 98.21676405 -100.17029862 101.08321791 -96.8984375 104.296875 C-96.30197418 104.89050842 -95.70551086 105.48414185 -95.0909729 106.09576416 C-93.1903019 107.98526627 -91.28278526 109.86768392 -89.375 111.75 C-88.08287532 113.03209065 -86.79120324 114.31463761 -85.5 115.59765625 C-82.33855521 118.73708432 -79.1709539 121.87017801 -76 125 C-71.5733929 121.28984473 -67.35785124 117.47851707 -63.28515625 113.3828125 C-62.53424965 112.62978348 -62.53424965 112.62978348 -61.76817322 111.86154175 C-60.19721402 110.28506329 -58.62980123 108.70511427 -57.0625 107.125 C-55.98656273 106.04403726 -54.91039269 104.96330617 -53.83398438 103.8828125 C-51.21996708 101.25787359 -48.60911404 98.62981372 -46 96 C-47.65367115 91.72113402 -50.86979574 88.8599365 -54.06640625 85.703125 C-54.66049789 85.10949158 -55.25458954 84.51585815 -55.86668396 83.90423584 C-57.11928717 82.65464684 -58.37431307 81.40748226 -59.6315918 80.16259766 C-61.56425072 78.24826588 -63.48871713 76.32598142 -65.41210938 74.40234375 C-66.62973606 73.1896298 -67.84781918 71.97737392 -69.06640625 70.765625 C-69.6455629 70.18758118 -70.22471954 69.60953735 -70.82142639 69.01397705 C-74.60069003 64.4232719 -74.60069003 64.4232719 -78.77563477 67.66210938 Z M-121.77563477 110.66210938 C-123.00012665 111.88676057 -124.22184708 113.11418652 -125.44140625 114.34375 C-126.08367661 114.9874353 -126.72594696 115.63112061 -127.38768005 116.29431152 C-129.44830012 118.36055079 -131.50542525 120.43023169 -133.5625 122.5 C-134.95485012 123.89736264 -136.34742525 125.29450111 -137.74023438 126.69140625 C-141.16277738 130.12500373 -144.58218882 133.56169268 -148 137 C-146.07139535 141.21676405 -143.17029862 144.08321791 -139.8984375 147.296875 C-139.30197418 147.89050842 -138.70551086 148.48414185 -138.0909729 149.09576416 C-136.1903019 150.98526627 -134.28278526 152.86768392 -132.375 154.75 C-131.08287532 156.03209065 -129.79120324 157.31463761 -128.5 158.59765625 C-125.33855521 161.73708432 -122.1709539 164.87017801 -119 168 C-114.5733929 164.28984473 -110.35785124 160.47851707 -106.28515625 156.3828125 C-105.53424965 155.62978348 -105.53424965 155.62978348 -104.76817322 154.86154175 C-103.19721402 153.28506329 -101.62980123 151.70511427 -100.0625 150.125 C-98.98656273 149.04403726 -97.91039269 147.96330617 -96.83398438 146.8828125 C-94.21996708 144.25787359 -91.60911404 141.62981372 -89 139 C-90.65367115 134.72113402 -93.86979574 131.8599365 -97.06640625 128.703125 C-97.66049789 128.10949158 -98.25458954 127.51585815 -98.86668396 126.90423584 C-100.11928717 125.65464684 -101.37431307 124.40748226 -102.6315918 123.16259766 C-104.56425072 121.24826588 -106.48871713 119.32598142 -108.41210938 117.40234375 C-109.62973606 116.1896298 -110.84781918 114.97737392 -112.06640625 113.765625 C-112.6455629 113.18758118 -113.22471954 112.60953735 -113.82142639 112.01397705 C-117.60069003 107.4232719 -117.60069003 107.4232719 -121.77563477 110.66210938 Z M-35.77563477 110.66210938 C-37.00012665 111.88676057 -38.22184708 113.11418652 -39.44140625 114.34375 C-40.08367661 114.9874353 -40.72594696 115.63112061 -41.38768005 116.29431152 C-43.44830012 118.36055079 -45.50542525 120.43023169 -47.5625 122.5 C-48.95485012 123.89736264 -50.34742525 125.29450111 -51.74023438 126.69140625 C-55.16277738 130.12500373 -58.58218882 133.56169268 -62 137 C-60.07139535 141.21676405 -57.17029862 144.08321791 -53.8984375 147.296875 C-53.30197418 147.89050842 -52.70551086 148.48414185 -52.0909729 149.09576416 C-50.1903019 150.98526627 -48.28278526 152.86768392 -46.375 154.75 C-45.08287532 156.03209065 -43.79120324 157.31463761 -42.5 158.59765625 C-39.33855521 161.73708432 -36.1709539 164.87017801 -33 168 C-28.5733929 164.28984473 -24.35785124 160.47851707 -20.28515625 156.3828125 C-19.53424965 155.62978348 -19.53424965 155.62978348 -18.76817322 154.86154175 C-17.19721402 153.28506329 -15.62980123 151.70511427 -14.0625 150.125 C-12.98656273 149.04403726 -11.91039269 147.96330617 -10.83398438 146.8828125 C-8.21996708 144.25787359 -5.60911404 141.62981372 -3 139 C-4.65367115 134.72113402 -7.86979574 131.8599365 -11.06640625 128.703125 C-11.66049789 128.10949158 -12.25458954 127.51585815 -12.86668396 126.90423584 C-14.11928717 125.65464684 -15.37431307 124.40748226 -16.6315918 123.16259766 C-18.56425072 121.24826588 -20.48871713 119.32598142 -22.41210938 117.40234375 C-23.62973606 116.1896298 -24.84781918 114.97737392 -26.06640625 113.765625 C-26.6455629 113.18758118 -27.22471954 112.60953735 -27.82142639 112.01397705 C-31.60069003 107.4232719 -31.60069003 107.4232719 -35.77563477 110.66210938 Z M-198 115 C-203.07866069 123.75965182 -207.28209642 132.70248701 -211 142.125 C-211.39759521 143.12023682 -211.79519043 144.11547363 -212.20483398 145.14086914 C-212.57036377 146.08696045 -212.93589355 147.03305176 -213.3125 148.0078125 C-213.63863281 148.84973145 -213.96476563 149.69165039 -214.30078125 150.55908203 C-215.06120724 153.2136697 -215.28239137 155.2538009 -215 158 C-212.82605456 160.77926726 -212.82605456 160.77926726 -210 163.3125 C-209.071875 164.19550781 -208.14375 165.07851562 -207.1875 165.98828125 C-206.465625 166.65214844 -205.74375 167.31601563 -205 168 C-198.25919575 162.47349666 -192.1928871 156.30550441 -186.0625 150.125 C-184.98656273 149.04403726 -183.91039269 147.96330617 -182.83398438 146.8828125 C-180.21996708 144.25787359 -177.60911404 141.62981372 -175 139 C-176.53786831 135.3468423 -178.73948958 133.016051 -181.53515625 130.234375 C-182.87223633 128.90019531 -182.87223633 128.90019531 -184.23632812 127.5390625 C-185.16896484 126.61867187 -186.10160156 125.69828125 -187.0625 124.75 C-188.00886639 123.8050908 -188.95483436 122.85978238 -189.90039062 121.9140625 C-193.49375375 117.55216878 -193.49375375 117.55216878 -198 115 Z M42 119 C36.06 124.94 30.12 130.88 24 137 C25.62217539 140.24435078 26.54455478 141.79969191 28.96875 144.234375 C29.53980469 144.80800781 30.11085938 145.38164062 30.69921875 145.97265625 C31.29347656 146.55917969 31.88773437 147.14570313 32.5 147.75 C33.09425781 148.35199219 33.68851562 148.95398438 34.30078125 149.57421875 C34.87183594 150.14269531 35.44289063 150.71117187 36.03125 151.296875 C36.55267578 151.81604492 37.07410156 152.33521484 37.61132812 152.87011719 C38.96018269 154.21037547 38.96018269 154.21037547 41 154 C45.34635565 136.00047803 45.34635565 136.00047803 42 119 Z M-164.77563477 153.66210938 C-166.00012665 154.88676057 -167.22184708 156.11418652 -168.44140625 157.34375 C-169.08367661 157.9874353 -169.72594696 158.63112061 -170.38768005 159.29431152 C-172.44830012 161.36055079 -174.50542525 163.43023169 -176.5625 165.5 C-177.95485012 166.89736264 -179.34742525 168.29450111 -180.74023438 169.69140625 C-184.16277738 173.12500373 -187.58218882 176.56169268 -191 180 C-189.07139535 184.21676405 -186.17029862 187.08321791 -182.8984375 190.296875 C-182.30197418 190.89050842 -181.70551086 191.48414185 -181.0909729 192.09576416 C-179.1903019 193.98526627 -177.28278526 195.86768392 -175.375 197.75 C-174.08287532 199.03209065 -172.79120324 200.31463761 -171.5 201.59765625 C-168.33855521 204.73708432 -165.1709539 207.87017801 -162 211 C-157.5733929 207.28984473 -153.35785124 203.47851707 -149.28515625 199.3828125 C-148.53424965 198.62978348 -148.53424965 198.62978348 -147.76817322 197.86154175 C-146.19721402 196.28506329 -144.62980123 194.70511427 -143.0625 193.125 C-141.98656273 192.04403726 -140.91039269 190.96330617 -139.83398438 189.8828125 C-137.21996708 187.25787359 -134.60911404 184.62981372 -132 182 C-133.65367115 177.72113402 -136.86979574 174.8599365 -140.06640625 171.703125 C-140.66049789 171.10949158 -141.25458954 170.51585815 -141.86668396 169.90423584 C-143.11928717 168.65464684 -144.37431307 167.40748226 -145.6315918 166.16259766 C-147.56425072 164.24826588 -149.48871713 162.32598142 -151.41210938 160.40234375 C-152.62973606 159.1896298 -153.84781918 157.97737392 -155.06640625 156.765625 C-155.6455629 156.18758118 -156.22471954 155.60953735 -156.82142639 155.01397705 C-160.60069003 150.4232719 -160.60069003 150.4232719 -164.77563477 153.66210938 Z M-78.77563477 153.66210938 C-80.00012665 154.88676057 -81.22184708 156.11418652 -82.44140625 157.34375 C-83.08367661 157.9874353 -83.72594696 158.63112061 -84.38768005 159.29431152 C-86.44830012 161.36055079 -88.50542525 163.43023169 -90.5625 165.5 C-91.95485012 166.89736264 -93.34742525 168.29450111 -94.74023438 169.69140625 C-98.16277738 173.12500373 -101.58218882 176.56169268 -105 180 C-103.07139535 184.21676405 -100.17029862 187.08321791 -96.8984375 190.296875 C-96.30197418 190.89050842 -95.70551086 191.48414185 -95.0909729 192.09576416 C-93.1903019 193.98526627 -91.28278526 195.86768392 -89.375 197.75 C-88.08287532 199.03209065 -86.79120324 200.31463761 -85.5 201.59765625 C-82.33855521 204.73708432 -79.1709539 207.87017801 -76 211 C-71.5733929 207.28984473 -67.35785124 203.47851707 -63.28515625 199.3828125 C-62.53424965 198.62978348 -62.53424965 198.62978348 -61.76817322 197.86154175 C-60.19721402 196.28506329 -58.62980123 194.70511427 -57.0625 193.125 C-55.98656273 192.04403726 -54.91039269 190.96330617 -53.83398438 189.8828125 C-51.21996708 187.25787359 -48.60911404 184.62981372 -46 182 C-47.65367115 177.72113402 -50.86979574 174.8599365 -54.06640625 171.703125 C-54.66049789 171.10949158 -55.25458954 170.51585815 -55.86668396 169.90423584 C-57.11928717 168.65464684 -58.37431307 167.40748226 -59.6315918 166.16259766 C-61.56425072 164.24826588 -63.48871713 162.32598142 -65.41210938 160.40234375 C-66.62973606 159.1896298 -67.84781918 157.97737392 -69.06640625 156.765625 C-69.6455629 156.18758118 -70.22471954 155.60953735 -70.82142639 155.01397705 C-74.60069003 150.4232719 -74.60069003 150.4232719 -78.77563477 153.66210938 Z M7.22436523 153.66210938 C5.99987335 154.88676057 4.77815292 156.11418652 3.55859375 157.34375 C2.91632339 157.9874353 2.27405304 158.63112061 1.61231995 159.29431152 C-0.44830012 161.36055079 -2.50542525 163.43023169 -4.5625 165.5 C-5.95485012 166.89736264 -7.34742525 168.29450111 -8.74023438 169.69140625 C-12.16277738 173.12500373 -15.58218882 176.56169268 -19 180 C-17.11295754 184.1008152 -14.35938276 186.92950025 -11.1875 190.078125 C-10.61797607 190.64956238 -10.04845215 191.22099976 -9.46166992 191.80975342 C-8.2604332 193.01234789 -7.05668003 194.21243334 -5.85058594 195.41015625 C-3.99959045 197.25040717 -2.15954554 199.10112633 -0.3203125 200.953125 C0.84831724 202.12043384 2.01756684 203.28712251 3.1875 204.453125 C3.73962158 205.00929504 4.29174316 205.56546509 4.8605957 206.13848877 C7.44788487 209.06914802 7.44788487 209.06914802 11 210 C12.62039519 208.18356456 14.09703894 206.37430981 15.5625 204.4375 C16.00215088 203.8612085 16.44180176 203.28491699 16.89477539 202.69116211 C21.80244289 196.12387143 25.99685038 189.14672723 30 182 C30.59941406 180.94683594 31.19882812 179.89367187 31.81640625 178.80859375 C33.14620416 175.6530667 33.24632997 175.07765762 32 172 C29.94552022 169.51477163 29.94552022 169.51477163 27.34375 167.015625 C26.88141968 166.55516785 26.41908936 166.09471069 25.94274902 165.62030029 C24.96776957 164.65202583 23.98920742 163.68734721 23.00732422 162.72607422 C21.49829149 161.24832691 20.00031497 159.76005053 18.50390625 158.26953125 C13.33157857 151.45583037 13.33157857 151.45583037 7.22436523 153.66210938 Z M-221 178 C-221.33 180.31 -221.66 182.62 -222 185 C-220.68 184.01 -219.36 183.02 -218 182 C-218.66 180.68 -219.32 179.36 -220 178 C-220.33 178 -220.66 178 -221 178 Z M-217.31469727 205.25512695 C-222.27326808 210.40230124 -222.27326808 210.40230124 -225.17578125 216.81640625 C-224.91654288 220.48399173 -224.14066676 223.50695472 -223 227 C-222.72148984 228.30512313 -222.4602954 229.61403898 -222.21484375 230.92578125 C-220.36390435 240.27369912 -217.06255774 248.89520919 -212 257 C-211.01 257.66 -210.02 258.32 -209 259 C-197.78 247.78 -186.56 236.56 -175 225 C-177.12223478 220.75553045 -179.74522096 217.98296028 -183.06640625 214.703125 C-183.66049789 214.10949158 -184.25458954 213.51585815 -184.86668396 212.90423584 C-186.11928717 211.65464684 -187.37431307 210.40748226 -188.6315918 209.16259766 C-190.56425072 207.24826588 -192.48871713 205.32598142 -194.41210938 203.40234375 C-195.62973606 202.1896298 -196.84781918 200.97737392 -198.06640625 199.765625 C-198.6455629 199.18758118 -199.22471954 198.60953735 -199.82142639 198.01397705 C-207.06097286 190.86091878 -211.11197303 199.18977811 -217.31469727 205.25512695 Z M-121.77563477 196.66210938 C-123.00012665 197.88676057 -124.22184708 199.11418652 -125.44140625 200.34375 C-126.08367661 200.9874353 -126.72594696 201.63112061 -127.38768005 202.29431152 C-129.44830012 204.36055079 -131.50542525 206.43023169 -133.5625 208.5 C-134.95485012 209.89736264 -136.34742525 211.29450111 -137.74023438 212.69140625 C-141.16277738 216.12500373 -144.58218882 219.56169268 -148 223 C-146.07139535 227.21676405 -143.17029862 230.08321791 -139.8984375 233.296875 C-139.30197418 233.89050842 -138.70551086 234.48414185 -138.0909729 235.09576416 C-136.1903019 236.98526627 -134.28278526 238.86768392 -132.375 240.75 C-131.08287532 242.03209065 -129.79120324 243.31463761 -128.5 244.59765625 C-125.33855521 247.73708432 -122.1709539 250.87017801 -119 254 C-114.5733929 250.28984473 -110.35785124 246.47851707 -106.28515625 242.3828125 C-105.53424965 241.62978348 -105.53424965 241.62978348 -104.76817322 240.86154175 C-103.19721402 239.28506329 -101.62980123 237.70511427 -100.0625 236.125 C-98.98656273 235.04403726 -97.91039269 233.96330617 -96.83398438 232.8828125 C-94.21996708 230.25787359 -91.60911404 227.62981372 -89 225 C-90.65367115 220.72113402 -93.86979574 217.8599365 -97.06640625 214.703125 C-97.66049789 214.10949158 -98.25458954 213.51585815 -98.86668396 212.90423584 C-100.11928717 211.65464684 -101.37431307 210.40748226 -102.6315918 209.16259766 C-104.56425072 207.24826588 -106.48871713 205.32598142 -108.41210938 203.40234375 C-109.62973606 202.1896298 -110.84781918 200.97737392 -112.06640625 199.765625 C-112.6455629 199.18758118 -113.22471954 198.60953735 -113.82142639 198.01397705 C-117.60069003 193.4232719 -117.60069003 193.4232719 -121.77563477 196.66210938 Z M-35.77563477 196.66210938 C-37.00012665 197.88676057 -38.22184708 199.11418652 -39.44140625 200.34375 C-40.08367661 200.9874353 -40.72594696 201.63112061 -41.38768005 202.29431152 C-43.44830012 204.36055079 -45.50542525 206.43023169 -47.5625 208.5 C-48.95485012 209.89736264 -50.34742525 211.29450111 -51.74023438 212.69140625 C-55.16277738 216.12500373 -58.58218882 219.56169268 -62 223 C-60.21627154 226.8431223 -57.7737487 229.48441391 -54.7734375 232.421875 C-54.26575836 232.92672424 -53.75807922 233.43157349 -53.23501587 233.95172119 C-51.61966158 235.55592096 -49.99747791 237.15300856 -48.375 238.75 C-47.27558302 239.83938107 -46.17661941 240.9292199 -45.078125 242.01953125 C-42.3906398 244.68501885 -39.69700979 247.34415143 -37 250 C-27.8789749 246.52618699 -20.43545875 239.46352546 -13 233.25 C-12.46052734 232.80277588 -11.92105469 232.35555176 -11.36523438 231.89477539 C-8.15901303 229.17604085 -5.57880292 226.30633458 -3 223 C-7.10856991 218.86679156 -11.22035246 214.73681698 -15.33520508 210.60986328 C-16.73584335 209.20418265 -18.13558465 207.79760769 -19.53442383 206.39013672 C-21.54015164 204.37233904 -23.5490372 202.35773369 -25.55859375 200.34375 C-26.18777206 199.7094104 -26.81695038 199.0750708 -27.4651947 198.42150879 C-28.95793603 196.92857324 -30.47632715 195.46135357 -32 194 C-33.52069861 193.88463442 -33.52069861 193.88463442 -35.77563477 196.66210938 Z M-163.44898987 238.32873535 C-164.37831581 239.26139221 -164.37831581 239.26139221 -165.32641602 240.21289062 C-166.0270668 240.91361694 -166.72771759 241.61434326 -167.44960022 242.33630371 C-168.21002121 243.10188599 -168.9704422 243.86746826 -169.75390625 244.65625 C-170.52935287 245.43311157 -171.3047995 246.20997314 -172.10374451 247.01037598 C-174.59234055 249.5045923 -177.07744669 252.00225441 -179.5625 254.5 C-181.24391275 256.18642514 -182.92555037 257.87262612 -184.60742188 259.55859375 C-188.74089891 263.70312669 -192.871512 267.85049764 -197 272 C-186.68823522 280.40797195 -173.1517702 284.61268247 -160 286 C-159.23220215 286.12407227 -158.4644043 286.24814453 -157.67333984 286.37597656 C-153.55253464 286.78492979 -151.0020807 286.68196612 -147.51464844 284.30859375 C-144.99293876 281.97649393 -142.67594049 279.54979428 -140.375 277 C-139.56160156 276.14148438 -138.74820313 275.28296875 -137.91015625 274.3984375 C-135.91552396 272.28647389 -133.94796654 270.15492604 -132 268 C-133.65367115 263.72113402 -136.86979574 260.8599365 -140.06640625 257.703125 C-140.66049789 257.10949158 -141.25458954 256.51585815 -141.86668396 255.90423584 C-143.11928717 254.65464684 -144.37431307 253.40748226 -145.6315918 252.16259766 C-147.56425072 250.24826588 -149.48871713 248.32598142 -151.41210938 246.40234375 C-152.62973606 245.1896298 -153.84781918 243.97737392 -155.06640625 242.765625 C-155.6455629 242.18758118 -156.22471954 241.60953735 -156.82142639 241.01397705 C-159.84323658 237.08827668 -159.84323658 237.08827668 -163.44898987 238.32873535 Z M-78.77563477 239.66210938 C-80.00012665 240.88676057 -81.22184708 242.11418652 -82.44140625 243.34375 C-83.08367661 243.9874353 -83.72594696 244.63112061 -84.38768005 245.29431152 C-86.44830012 247.36055079 -88.50542525 249.43023169 -90.5625 251.5 C-91.95485012 252.89736264 -93.34742525 254.29450111 -94.74023438 255.69140625 C-98.16277738 259.12500373 -101.58218882 262.56169268 -105 266 C-103.39464713 269.41059403 -101.59481099 271.61792484 -98.875 274.25 C-97.58333333 275.5 -96.29166667 276.75 -95 278 C-87.05990764 276.07933897 -79.76061061 273.39754886 -72.3125 270.0625 C-71.33216797 269.63259766 -70.35183594 269.20269531 -69.34179688 268.75976562 C-63.81361785 266.31966517 -58.38018611 263.75072386 -53 261 C-54.53786831 257.3468423 -56.73948958 255.016051 -59.53515625 252.234375 C-60.42654297 251.34492188 -61.31792969 250.45546875 -62.23632812 249.5390625 C-63.16896484 248.61867188 -64.10160156 247.69828125 -65.0625 246.75 C-66.00886639 245.8050908 -66.95483436 244.85978238 -67.90039062 243.9140625 C-72.9532309 237.2649951 -72.9532309 237.2649951 -78.77563477 239.66210938 Z M-244 274 C-244.28915283 274.70237793 -244.57830566 275.40475586 -244.8762207 276.12841797 C-248.20668527 284.1749045 -251.64482969 292.16970711 -255.1875 300.125 C-255.46669281 300.75264252 -255.74588562 301.38028503 -256.03353882 302.02694702 C-260.79223531 312.68386066 -266.04482749 322.95820797 -272 333 C-271.34 333.33 -270.68 333.66 -270 334 C-268.00596163 333.16263309 -268.00596163 333.16263309 -265.80078125 331.82421875 C-264.93251709 331.33058838 -264.06425293 330.83695801 -263.16967773 330.32836914 C-261.75537476 329.51613892 -261.75537476 329.51613892 -260.3125 328.6875 C-244.85836687 320.02833008 -228.63577258 313.06678846 -212 307 C-213.22253244 303.33240268 -214.31637504 302.88087362 -217.5 300.8125 C-226.29029352 294.81059262 -232.87920601 288.2801794 -239.0546875 279.63671875 C-240.61212097 277.52573965 -242.13012863 275.8112516 -244 274 Z M-119 280 C-120.485 281.98 -120.485 281.98 -122 284 C-120.35 284 -118.7 284 -117 284 C-117 283.01 -117 282.02 -117 281 C-117.66 280.67 -118.32 280.34 -119 280 Z " fill="#3A97D2" transform="translate(433,21)"/>
<path d="M0 0 C2.9375 0.62109375 2.9375 0.62109375 5.75 1.5 C7.11125 1.88865234 7.11125 1.88865234 8.5 2.28515625 C10.62524429 2.9459744 12.68565698 3.671135 14.75 4.5 C13.14626852 8.50517396 10.32886014 11.1771098 7.3046875 14.140625 C6.77481232 14.66767029 6.24493713 15.19471558 5.69900513 15.73773193 C4.01232175 17.41325675 2.31880436 19.08167722 0.625 20.75 C-0.52259388 21.88755851 -1.66973461 23.02557436 -2.81640625 24.1640625 C-5.62238137 26.94803465 -8.43450464 29.7256576 -11.25 32.5 C-9.61221955 36.69625909 -6.51676818 39.48676785 -3.3671875 42.578125 C-2.79292023 43.14956238 -2.21865295 43.72099976 -1.62698364 44.30975342 C0.2023581 46.12792945 2.03854193 47.93901492 3.875 49.75 C5.11894774 50.98391329 6.3624427 52.21828322 7.60546875 53.453125 C10.64842367 56.47406743 13.69753254 59.48867092 16.75 62.5 C21.65473901 58.38670129 26.2719528 54.11457539 30.77734375 49.5703125 C31.41112442 48.93511688 32.04490509 48.29992126 32.69789124 47.64547729 C34.69681406 45.64101284 36.69220784 43.63307786 38.6875 41.625 C40.05250133 40.25497611 41.4177336 38.88518226 42.78320312 37.515625 C46.10814211 34.17973457 49.42992353 30.84072964 52.75 27.5 C56.29023647 29.17132419 58.74347254 31.13339333 61.5625 33.875 C62.77873047 35.03128906 62.77873047 35.03128906 64.01953125 36.2109375 C65.75 38.5 65.75 38.5 65.55458069 40.425354 C64.60452898 42.8751033 63.4732788 44.1385837 61.60717773 45.98339844 C60.94656845 46.64378113 60.28595917 47.30416382 59.60533142 47.98455811 C58.88865799 48.68574768 58.17198456 49.38693726 57.43359375 50.109375 C56.70253922 50.83618469 55.97148468 51.56299438 55.21827698 52.31182861 C52.88162843 54.63168401 50.53476516 56.940892 48.1875 59.25 C46.60152964 60.82092443 45.01623457 62.39253094 43.43164062 63.96484375 C39.54556178 67.81784484 35.65104457 71.66215519 31.75 75.5 C33.6431784 79.62390399 36.42825368 82.43280604 39.6328125 85.578125 C40.49421341 86.43528107 40.49421341 86.43528107 41.37301636 87.30975342 C43.2023581 89.12792945 45.03854193 90.93901492 46.875 92.75 C48.11894774 93.98391329 49.3624427 95.21828322 50.60546875 96.453125 C53.64842367 99.47406743 56.69753254 102.48867092 59.75 105.5 C66.11590304 100.25541414 71.88570612 94.47902678 77.6875 88.625 C78.66708237 87.64039081 79.64689837 86.656014 80.62695312 85.671875 C83.00360252 83.28351797 85.37787356 80.89284788 87.75 78.5 C88.41 78.83 89.07 79.16 89.75 79.5 C90.6015625 82.16015625 90.6015625 82.16015625 91.375 85.5625 C91.76558594 87.21958984 91.76558594 87.21958984 92.1640625 88.91015625 C92.35742188 90.09480469 92.55078125 91.27945313 92.75 92.5 C93.07097656 94.40072266 93.07097656 94.40072266 93.3984375 96.33984375 C93.30295711 101.48276473 89.86072213 104.20380477 86.3515625 107.6015625 C85.06378906 108.78878906 85.06378906 108.78878906 83.75 110 C82.89148438 110.82242188 82.03296875 111.64484375 81.1484375 112.4921875 C79.03253864 114.51404641 76.90032017 116.51489355 74.75 118.5 C76.06094678 121.44596563 77.40280937 123.33524898 79.82421875 125.453125 C80.70110352 126.25943359 80.70110352 126.25943359 81.59570312 127.08203125 C82.8223165 128.19287729 84.06204684 129.2894109 85.31445312 130.37109375 C89.61475942 134.38980396 89.61475942 134.38980396 89.99291992 137.49414062 C89.54651644 141.66918009 88.20055735 145.59533587 86.6875 149.5 C86.32527344 150.44875 85.96304687 151.3975 85.58984375 152.375 C85.17412109 153.426875 85.17412109 153.426875 84.75 154.5 C81.75 154.5 81.75 154.5 79.48168945 152.57226562 C78.61761475 151.69248047 77.75354004 150.81269531 76.86328125 149.90625 C76.40140915 149.44013306 75.93953705 148.97401611 75.46366882 148.49377441 C73.98943048 147.0027371 72.52595912 145.50161128 71.0625 144 C70.06514472 142.98759946 69.06710583 141.97587189 68.06835938 140.96484375 C65.62092436 138.48432371 63.18304113 135.99464911 60.75 133.5 C54.19622903 138.88640924 48.27753365 144.85885127 42.3125 150.875 C41.28474017 151.90778595 40.25674715 152.94033991 39.22851562 153.97265625 C36.73298402 156.47910287 34.24061918 158.9886708 31.75 161.5 C33.38778045 165.69625909 36.48323182 168.48676785 39.6328125 171.578125 C40.20707977 172.14956238 40.78134705 172.72099976 41.37301636 173.30975342 C43.2023581 175.12792945 45.03854193 176.93901492 46.875 178.75 C48.11894774 179.98391329 49.3624427 181.21828322 50.60546875 182.453125 C53.64842367 185.47406743 56.69753254 188.48867092 59.75 191.5 C57.96799313 195.35027991 55.67324595 197.7799142 52.625 200.75 C51.71492187 201.64203125 50.80484375 202.5340625 49.8671875 203.453125 C48.81917969 204.46632812 48.81917969 204.46632812 47.75 205.5 C41.00919575 199.97349666 34.9428871 193.80550441 28.8125 187.625 C27.73656273 186.54403726 26.66039269 185.46330617 25.58398438 184.3828125 C22.96996708 181.75787359 20.35911404 179.12981372 17.75 176.5 C11.19622903 181.88640924 5.27753365 187.85885127 -0.6875 193.875 C-1.71525983 194.90778595 -2.74325285 195.94033991 -3.77148438 196.97265625 C-6.26701598 199.47910287 -8.75938082 201.9886708 -11.25 204.5 C-9.66568547 208.40851199 -6.98364905 211.02367356 -4.0234375 213.921875 C-3.51575836 214.42672424 -3.00807922 214.93157349 -2.48501587 215.45172119 C-0.86966158 217.05592096 0.75252209 218.65300856 2.375 220.25 C3.47441698 221.33938107 4.57338059 222.4292199 5.671875 223.51953125 C8.3593602 226.18501885 11.05299021 228.84415143 13.75 231.5 C10.91701234 234.3999941 8.21229159 236.68551294 4.75 238.8125 C3.904375 239.34488281 3.05875 239.87726563 2.1875 240.42578125 C-0.25 241.5 -0.25 241.5 -2.09082031 241.36035156 C-5.1724359 240.13244413 -6.91583784 238.16954317 -9.234375 235.80859375 C-9.69483215 235.34389175 -10.15528931 234.87918976 -10.62969971 234.40040588 C-12.09367811 232.91968181 -13.54686041 231.42885481 -15 229.9375 C-15.99279449 228.92965336 -16.9862767 227.92248367 -17.98046875 226.91601562 C-20.41166473 224.45180539 -22.83328868 221.97842671 -25.25 219.5 C-31.80377097 224.88640924 -37.72246635 230.85885127 -43.6875 236.875 C-44.71525983 237.90778595 -45.74325285 238.94033991 -46.77148438 239.97265625 C-49.26701598 242.47910287 -51.75938082 244.9886708 -54.25 247.5 C-52.74446053 250.68000919 -51.20470107 252.71515579 -48.625 255.125 C-46.7109375 256.9140625 -46.7109375 256.9140625 -45.25 258.5 C-45.25 259.16 -45.25 259.82 -45.25 260.5 C-47.62265061 261.17617524 -49.99755355 261.84108226 -52.375 262.5 C-53.37273437 262.78617187 -53.37273437 262.78617187 -54.390625 263.078125 C-58.44068596 264.18990644 -62.05384755 264.88920834 -66.25 264.5 C-67.24 263.84 -68.23 263.18 -69.25 262.5 C-70.054375 263.304375 -70.85875 264.10875 -71.6875 264.9375 C-79.02781988 270.92476552 -92.20762171 268.59343445 -101.25 268.5 C-95.69964797 261.71623641 -89.48557973 255.64477032 -83.25 249.5 C-84.88778045 245.30374091 -87.98323182 242.51323215 -91.1328125 239.421875 C-91.70707977 238.85043762 -92.28134705 238.27900024 -92.87301636 237.69024658 C-94.7023581 235.87207055 -96.53854193 234.06098508 -98.375 232.25 C-99.61894774 231.01608671 -100.8624427 229.78171678 -102.10546875 228.546875 C-105.14842367 225.52593257 -108.19753254 222.51132908 -111.25 219.5 C-116.08383454 223.50822249 -120.56093538 227.72795541 -124.91796875 232.24609375 C-126.15240276 233.50774099 -127.38744615 234.76879224 -128.62304688 236.02929688 C-130.54475907 237.99451021 -132.46228174 239.96320851 -134.36987305 241.94213867 C-136.2287984 243.86734432 -138.10298161 245.77650933 -139.98046875 247.68359375 C-140.55033005 248.28239853 -141.12019135 248.88120331 -141.70732117 249.49815369 C-143.33666992 251.13842773 -143.33666992 251.13842773 -146.25 253.5 C-151.65843425 252.92575442 -155.29763111 248.62780526 -158.625 244.6875 C-159.16125 243.965625 -159.6975 243.24375 -160.25 242.5 C-158.90427113 239.50056095 -157.41462899 237.41923821 -155.08544922 235.10839844 C-154.12467972 234.14785553 -154.12467972 234.14785553 -153.14450073 233.16790771 C-152.45486237 232.48859192 -151.765224 231.80927612 -151.0546875 231.109375 C-150.34724396 230.40476135 -149.63980042 229.70014771 -148.91091919 228.97418213 C-146.65360138 226.7280461 -144.38942367 224.48896991 -142.125 222.25 C-140.59199047 220.72702283 -139.05943285 219.20359061 -137.52734375 217.6796875 C-133.77345427 213.94783185 -130.01391086 210.22174649 -126.25 206.5 C-128.1431784 202.37609601 -130.92825368 199.56719396 -134.1328125 196.421875 C-134.70707977 195.85043762 -135.28134705 195.27900024 -135.87301636 194.69024658 C-137.7023581 192.87207055 -139.53854193 191.06098508 -141.375 189.25 C-142.61894774 188.01608671 -143.8624427 186.78171678 -145.10546875 185.546875 C-148.14842367 182.52593257 -151.19753254 179.51132908 -154.25 176.5 C-159.5390965 180.89656763 -164.3881951 185.57184877 -169.15039062 190.52734375 C-170.48137092 191.88729545 -171.86197054 193.19832746 -173.25 194.5 C-173.91 194.5 -174.57 194.5 -175.25 194.5 C-175.47516693 187.7825198 -175.27248529 181.17273124 -174.5 174.5 C-174.36078125 173.2625 -174.2215625 172.025 -174.078125 170.75 C-173.16366716 167.16118433 -172.08521961 165.8050566 -169.25 163.5 C-169.58386719 162.93410156 -169.91773438 162.36820313 -170.26171875 161.78515625 C-173.26328561 154.84477439 -169.31523965 145.33217647 -167.25 138.5 C-163.79798361 139.97721422 -161.60038064 141.93794001 -159 144.625 C-158.29359375 145.34945312 -157.5871875 146.07390625 -156.859375 146.8203125 C-156.06273437 147.65175781 -156.06273437 147.65175781 -155.25 148.5 C-148.69622903 143.11359076 -142.77753365 137.14114873 -136.8125 131.125 C-135.78474017 130.09221405 -134.75674715 129.05966009 -133.72851562 128.02734375 C-131.23298402 125.52089713 -128.74061918 123.0113292 -126.25 120.5 C-127.7891801 116.83247995 -130.00485452 114.51419427 -132.8203125 111.734375 C-134.16416016 110.40019531 -134.16416016 110.40019531 -135.53515625 109.0390625 C-136.47230469 108.11867188 -137.40945312 107.19828125 -138.375 106.25 C-139.32988637 105.30515144 -140.28431859 104.35984367 -141.23828125 103.4140625 C-143.57109087 101.10481662 -145.90844086 98.80036797 -148.25 96.5 C-146.83840924 92.89942613 -145.29697415 89.54846516 -143.375 86.1875 C-142.88257813 85.30449219 -142.39015625 84.42148438 -141.8828125 83.51171875 C-141.07457031 82.51591797 -141.07457031 82.51591797 -140.25 81.5 C-136.25 81.5 -136.25 81.5 -133.59277344 83.703125 C-132.58798832 84.70854229 -131.59411834 85.72494507 -130.609375 86.75 C-130.08232971 87.28270508 -129.55528442 87.81541016 -129.01226807 88.36425781 C-127.33189366 90.06701394 -125.66595959 91.78314943 -124 93.5 C-122.86290353 94.65715907 -121.72489306 95.81342073 -120.5859375 96.96875 C-117.79658087 99.8021977 -115.02009576 102.64772432 -112.25 105.5 C-105.69622903 100.11359076 -99.77753365 94.14114873 -93.8125 88.125 C-92.78474017 87.09221405 -91.75674715 86.05966009 -90.72851562 85.02734375 C-88.23298402 82.52089713 -85.74061918 80.0113292 -83.25 77.5 C-84.8734455 73.30332104 -87.98356793 70.59941272 -91.16796875 67.5625 C-92.35132904 66.4092825 -93.53425908 65.25562339 -94.71679688 64.1015625 C-96.58180981 62.29249749 -98.45043447 60.48761206 -100.3269043 58.69042969 C-102.13916794 56.95046695 -103.93561163 55.19538792 -105.73046875 53.4375 C-106.29807419 52.9019751 -106.86567963 52.3664502 -107.45048523 51.81469727 C-109.00854492 50.27734375 -109.00854492 50.27734375 -111.25 47.5 C-111.25225521 44.09763423 -110.18056954 43.42851154 -107.74609375 40.921875 C-106.73428347 40.02248809 -105.71444308 39.13206846 -104.6875 38.25 C-104.16736328 37.79109375 -103.64722656 37.3321875 -103.11132812 36.859375 C-101.83104445 35.7317857 -100.54141202 34.61482685 -99.25 33.5 C-92.50919575 39.02650334 -86.4428871 45.19449559 -80.3125 51.375 C-79.23656273 52.45596274 -78.16039269 53.53669383 -77.08398438 54.6171875 C-74.46996708 57.24212641 -71.85911404 59.87018628 -69.25 62.5 C-62.69622903 57.11359076 -56.77753365 51.14114873 -50.8125 45.125 C-49.78474017 44.09221405 -48.75674715 43.05966009 -47.72851562 42.02734375 C-45.23298402 39.52089713 -42.74061918 37.0113292 -40.25 34.5 C-41.7891801 30.83247995 -44.00485452 28.51419427 -46.8203125 25.734375 C-47.71621094 24.84492187 -48.61210937 23.95546875 -49.53515625 23.0390625 C-50.47230469 22.11867188 -51.40945313 21.19828125 -52.375 20.25 C-53.32988637 19.30515144 -54.28431859 18.35984367 -55.23828125 17.4140625 C-57.57109087 15.10481662 -59.90844086 12.80036797 -62.25 10.5 C-59.19106989 8.12273016 -56.46804423 6.63579687 -52.8125 5.3125 C-51.88566406 4.96832031 -50.95882812 4.62414063 -50.00390625 4.26953125 C-47.14636547 3.47104113 -45.19635711 3.19492532 -42.25 3.5 C-40.21362305 4.96875 -40.21362305 4.96875 -38.26171875 7 C-37.55595703 7.721875 -36.85019531 8.44375 -36.12304688 9.1875 C-35.40181641 9.950625 -34.68058594 10.71375 -33.9375 11.5 C-32.82665039 12.6446875 -32.82665039 12.6446875 -31.69335938 13.8125 C-29.86716844 15.69760032 -28.05364241 17.59335569 -26.25 19.5 C-22.62371982 16.55031995 -19.20939375 13.57414113 -16.14453125 10.03515625 C-6.91445644 -0.50335123 -6.91445644 -0.50335123 0 0 Z M-29.02563477 49.16210938 C-30.25012665 50.38676057 -31.47184708 51.61418652 -32.69140625 52.84375 C-33.33367661 53.4874353 -33.97594696 54.13112061 -34.63768005 54.79431152 C-36.69830012 56.86055079 -38.75542525 58.93023169 -40.8125 61 C-42.20485012 62.39736264 -43.59742525 63.79450111 -44.99023438 65.19140625 C-48.41277738 68.62500373 -51.83218882 72.06169268 -55.25 75.5 C-53.32139535 79.71676405 -50.42029862 82.58321791 -47.1484375 85.796875 C-46.55197418 86.39050842 -45.95551086 86.98414185 -45.3409729 87.59576416 C-43.4403019 89.48526627 -41.53278526 91.36768392 -39.625 93.25 C-38.33287532 94.53209065 -37.04120324 95.81463761 -35.75 97.09765625 C-32.58855521 100.23708432 -29.4209539 103.37017801 -26.25 106.5 C-21.8233929 102.78984473 -17.60785124 98.97851707 -13.53515625 94.8828125 C-12.78424965 94.12978348 -12.78424965 94.12978348 -12.01817322 93.36154175 C-10.44721402 91.78506329 -8.87980123 90.20511427 -7.3125 88.625 C-6.23656273 87.54403726 -5.16039269 86.46330617 -4.08398438 85.3828125 C-1.46996708 82.75787359 1.14088596 80.12981372 3.75 77.5 C2.09632885 73.22113402 -1.11979574 70.3599365 -4.31640625 67.203125 C-4.91049789 66.60949158 -5.50458954 66.01585815 -6.11668396 65.40423584 C-7.36928717 64.15464684 -8.62431307 62.90748226 -9.8815918 61.66259766 C-11.81425072 59.74826588 -13.73871713 57.82598142 -15.66210938 55.90234375 C-16.87973606 54.6896298 -18.09781918 53.47737392 -19.31640625 52.265625 C-19.8955629 51.68758118 -20.47471954 51.10953735 -21.07142639 50.51397705 C-24.85069003 45.9232719 -24.85069003 45.9232719 -29.02563477 49.16210938 Z M-72.02563477 92.16210938 C-73.25012665 93.38676057 -74.47184708 94.61418652 -75.69140625 95.84375 C-76.33367661 96.4874353 -76.97594696 97.13112061 -77.63768005 97.79431152 C-79.69830012 99.86055079 -81.75542525 101.93023169 -83.8125 104 C-85.20485012 105.39736264 -86.59742525 106.79450111 -87.99023438 108.19140625 C-91.41277738 111.62500373 -94.83218882 115.06169268 -98.25 118.5 C-96.32139535 122.71676405 -93.42029862 125.58321791 -90.1484375 128.796875 C-89.55197418 129.39050842 -88.95551086 129.98414185 -88.3409729 130.59576416 C-86.4403019 132.48526627 -84.53278526 134.36768392 -82.625 136.25 C-81.33287532 137.53209065 -80.04120324 138.81463761 -78.75 140.09765625 C-75.58855521 143.23708432 -72.4209539 146.37017801 -69.25 149.5 C-64.8233929 145.78984473 -60.60785124 141.97851707 -56.53515625 137.8828125 C-55.78424965 137.12978348 -55.78424965 137.12978348 -55.01817322 136.36154175 C-53.44721402 134.78506329 -51.87980123 133.20511427 -50.3125 131.625 C-49.23656273 130.54403726 -48.16039269 129.46330617 -47.08398438 128.3828125 C-44.46996708 125.75787359 -41.85911404 123.12981372 -39.25 120.5 C-40.90367115 116.22113402 -44.11979574 113.3599365 -47.31640625 110.203125 C-47.91049789 109.60949158 -48.50458954 109.01585815 -49.11668396 108.40423584 C-50.36928717 107.15464684 -51.62431307 105.90748226 -52.8815918 104.66259766 C-54.81425072 102.74826588 -56.73871713 100.82598142 -58.66210938 98.90234375 C-59.87973606 97.6896298 -61.09781918 96.47737392 -62.31640625 95.265625 C-62.8955629 94.68758118 -63.47471954 94.10953735 -64.07142639 93.51397705 C-67.85069003 88.9232719 -67.85069003 88.9232719 -72.02563477 92.16210938 Z M13.97436523 92.16210938 C12.74987335 93.38676057 11.52815292 94.61418652 10.30859375 95.84375 C9.66632339 96.4874353 9.02405304 97.13112061 8.36231995 97.79431152 C6.30169988 99.86055079 4.24457475 101.93023169 2.1875 104 C0.79514988 105.39736264 -0.59742525 106.79450111 -1.99023438 108.19140625 C-5.41277738 111.62500373 -8.83218882 115.06169268 -12.25 118.5 C-10.32139535 122.71676405 -7.42029862 125.58321791 -4.1484375 128.796875 C-3.55197418 129.39050842 -2.95551086 129.98414185 -2.3409729 130.59576416 C-0.4403019 132.48526627 1.46721474 134.36768392 3.375 136.25 C4.66712468 137.53209065 5.95879676 138.81463761 7.25 140.09765625 C10.41144479 143.23708432 13.5790461 146.37017801 16.75 149.5 C21.1766071 145.78984473 25.39214876 141.97851707 29.46484375 137.8828125 C30.21575035 137.12978348 30.21575035 137.12978348 30.98182678 136.36154175 C32.55278598 134.78506329 34.12019877 133.20511427 35.6875 131.625 C36.76343727 130.54403726 37.83960731 129.46330617 38.91601562 128.3828125 C41.53003292 125.75787359 44.14088596 123.12981372 46.75 120.5 C45.09632885 116.22113402 41.88020426 113.3599365 38.68359375 110.203125 C38.08950211 109.60949158 37.49541046 109.01585815 36.88331604 108.40423584 C35.63071283 107.15464684 34.37568693 105.90748226 33.1184082 104.66259766 C31.18574928 102.74826588 29.26128287 100.82598142 27.33789062 98.90234375 C26.12026394 97.6896298 24.90218082 96.47737392 23.68359375 95.265625 C23.1044371 94.68758118 22.52528046 94.10953735 21.92857361 93.51397705 C18.14930997 88.9232719 18.14930997 88.9232719 13.97436523 92.16210938 Z M-115.02563477 135.16210938 C-116.25012665 136.38676057 -117.47184708 137.61418652 -118.69140625 138.84375 C-119.33367661 139.4874353 -119.97594696 140.13112061 -120.63768005 140.79431152 C-122.69830012 142.86055079 -124.75542525 144.93023169 -126.8125 147 C-128.20485012 148.39736264 -129.59742525 149.79450111 -130.99023438 151.19140625 C-134.41277738 154.62500373 -137.83218882 158.06169268 -141.25 161.5 C-139.32139535 165.71676405 -136.42029862 168.58321791 -133.1484375 171.796875 C-132.55197418 172.39050842 -131.95551086 172.98414185 -131.3409729 173.59576416 C-129.4403019 175.48526627 -127.53278526 177.36768392 -125.625 179.25 C-124.33287532 180.53209065 -123.04120324 181.81463761 -121.75 183.09765625 C-118.58855521 186.23708432 -115.4209539 189.37017801 -112.25 192.5 C-107.8233929 188.78984473 -103.60785124 184.97851707 -99.53515625 180.8828125 C-98.78424965 180.12978348 -98.78424965 180.12978348 -98.01817322 179.36154175 C-96.44721402 177.78506329 -94.87980123 176.20511427 -93.3125 174.625 C-92.23656273 173.54403726 -91.16039269 172.46330617 -90.08398438 171.3828125 C-87.46996708 168.75787359 -84.85911404 166.12981372 -82.25 163.5 C-83.90367115 159.22113402 -87.11979574 156.3599365 -90.31640625 153.203125 C-90.91049789 152.60949158 -91.50458954 152.01585815 -92.11668396 151.40423584 C-93.36928717 150.15464684 -94.62431307 148.90748226 -95.8815918 147.66259766 C-97.81425072 145.74826588 -99.73871713 143.82598142 -101.66210938 141.90234375 C-102.87973606 140.6896298 -104.09781918 139.47737392 -105.31640625 138.265625 C-105.8955629 137.68758118 -106.47471954 137.10953735 -107.07142639 136.51397705 C-110.85069003 131.9232719 -110.85069003 131.9232719 -115.02563477 135.16210938 Z M-29.02563477 135.16210938 C-30.25012665 136.38676057 -31.47184708 137.61418652 -32.69140625 138.84375 C-33.33367661 139.4874353 -33.97594696 140.13112061 -34.63768005 140.79431152 C-36.69830012 142.86055079 -38.75542525 144.93023169 -40.8125 147 C-42.20485012 148.39736264 -43.59742525 149.79450111 -44.99023438 151.19140625 C-48.41277738 154.62500373 -51.83218882 158.06169268 -55.25 161.5 C-53.32139535 165.71676405 -50.42029862 168.58321791 -47.1484375 171.796875 C-46.55197418 172.39050842 -45.95551086 172.98414185 -45.3409729 173.59576416 C-43.4403019 175.48526627 -41.53278526 177.36768392 -39.625 179.25 C-38.33287532 180.53209065 -37.04120324 181.81463761 -35.75 183.09765625 C-32.58855521 186.23708432 -29.4209539 189.37017801 -26.25 192.5 C-21.8233929 188.78984473 -17.60785124 184.97851707 -13.53515625 180.8828125 C-12.78424965 180.12978348 -12.78424965 180.12978348 -12.01817322 179.36154175 C-10.44721402 177.78506329 -8.87980123 176.20511427 -7.3125 174.625 C-6.23656273 173.54403726 -5.16039269 172.46330617 -4.08398438 171.3828125 C-1.46996708 168.75787359 1.14088596 166.12981372 3.75 163.5 C2.09632885 159.22113402 -1.11979574 156.3599365 -4.31640625 153.203125 C-4.91049789 152.60949158 -5.50458954 152.01585815 -6.11668396 151.40423584 C-7.36928717 150.15464684 -8.62431307 148.90748226 -9.8815918 147.66259766 C-11.81425072 145.74826588 -13.73871713 143.82598142 -15.66210938 141.90234375 C-16.87973606 140.6896298 -18.09781918 139.47737392 -19.31640625 138.265625 C-19.8955629 137.68758118 -20.47471954 137.10953735 -21.07142639 136.51397705 C-24.85069003 131.9232719 -24.85069003 131.9232719 -29.02563477 135.16210938 Z M-72.02563477 178.16210938 C-73.25012665 179.38676057 -74.47184708 180.61418652 -75.69140625 181.84375 C-76.33367661 182.4874353 -76.97594696 183.13112061 -77.63768005 183.79431152 C-79.69830012 185.86055079 -81.75542525 187.93023169 -83.8125 190 C-85.20485012 191.39736264 -86.59742525 192.79450111 -87.99023438 194.19140625 C-91.41277738 197.62500373 -94.83218882 201.06169268 -98.25 204.5 C-96.32139535 208.71676405 -93.42029862 211.58321791 -90.1484375 214.796875 C-89.55197418 215.39050842 -88.95551086 215.98414185 -88.3409729 216.59576416 C-86.4403019 218.48526627 -84.53278526 220.36768392 -82.625 222.25 C-81.33287532 223.53209065 -80.04120324 224.81463761 -78.75 226.09765625 C-75.58855521 229.23708432 -72.4209539 232.37017801 -69.25 235.5 C-64.8233929 231.78984473 -60.60785124 227.97851707 -56.53515625 223.8828125 C-55.78424965 223.12978348 -55.78424965 223.12978348 -55.01817322 222.36154175 C-53.44721402 220.78506329 -51.87980123 219.20511427 -50.3125 217.625 C-49.23656273 216.54403726 -48.16039269 215.46330617 -47.08398438 214.3828125 C-44.46996708 211.75787359 -41.85911404 209.12981372 -39.25 206.5 C-40.90367115 202.22113402 -44.11979574 199.3599365 -47.31640625 196.203125 C-47.91049789 195.60949158 -48.50458954 195.01585815 -49.11668396 194.40423584 C-50.36928717 193.15464684 -51.62431307 191.90748226 -52.8815918 190.66259766 C-54.81425072 188.74826588 -56.73871713 186.82598142 -58.66210938 184.90234375 C-59.87973606 183.6896298 -61.09781918 182.47737392 -62.31640625 181.265625 C-62.8955629 180.68758118 -63.47471954 180.10953735 -64.07142639 179.51397705 C-67.85069003 174.9232719 -67.85069003 174.9232719 -72.02563477 178.16210938 Z " fill="#275680" transform="translate(383.25,39.5)"/>
<path d="M0 0 C0.71503693 0.70582214 1.43007385 1.41164429 2.16677856 2.13885498 C2.98717621 2.9401886 3.80757385 3.74152222 4.65283203 4.56713867 C5.51868927 5.43481873 6.38454651 6.30249878 7.27664185 7.19647217 C8.17819 8.08945007 9.07973816 8.98242798 10.00860596 9.90246582 C11.90826446 11.79065293 13.80309286 13.68257711 15.69168091 15.58172607 C18.10936673 18.01102706 20.54908323 20.41677521 22.99561882 22.81697464 C25.33232095 25.11710146 27.6469577 27.43920906 29.96414185 29.75897217 C30.84214447 30.6185553 31.72014709 31.47813843 32.62475586 32.36376953 C33.82698288 33.58468292 33.82698288 33.58468292 35.05349731 34.83026123 C35.76376068 35.53926575 36.47402405 36.24827026 37.20581055 36.97875977 C39.2432226 40.02193923 39.27941199 41.63863188 38.72195435 45.24334717 C36.14620768 49.96091086 32.67211647 53.57593034 28.88699341 57.32122803 C28.31404541 57.89607437 27.74109741 58.47092072 27.15078735 59.06318665 C25.26789195 60.94976634 23.37792644 62.82908022 21.48757935 64.70819092 C20.16688115 66.02769534 18.84655425 67.34757147 17.52658081 68.6678009 C14.7624327 71.43038792 11.99496853 74.18959378 9.22488403 76.94622803 C5.69173004 80.46243473 2.1651516 83.98514528 -1.35915756 87.51021481 C-4.08536536 90.23614925 -6.81418295 92.95945854 -9.54386139 95.68191719 C-10.84407541 96.97897041 -12.14370347 98.27661132 -13.44271088 99.57487297 C-25.25774297 111.3757039 -25.25774297 111.3757039 -31.56967163 116.75611877 C-34.4859025 119.29484934 -37.18334882 122.04470836 -39.89523315 124.79803467 C-40.47846344 125.38505157 -41.06169373 125.97206848 -41.66259766 126.57687378 C-43.49524379 128.42157538 -45.3245486 130.26953348 -47.15304565 132.11834717 C-49.58507751 134.57693788 -52.02039042 137.0322102 -54.45773315 139.48553467 C-55.01290619 140.04900604 -55.56807922 140.61247742 -56.14007568 141.19302368 C-59.28428449 144.35741568 -60.95403128 146.03150487 -65.40304565 146.74334717 C-69.49694843 146.21510165 -70.14156823 145.84091914 -73.02243042 143.20159912 C-73.72095123 142.56396637 -74.41947205 141.92633362 -75.13916016 141.26937866 C-78.55718208 138.03170181 -81.91881668 134.74532165 -85.2428894 131.41131592 C-86.32105675 130.33458366 -86.32105675 130.33458366 -87.42100525 129.23609924 C-88.92381495 127.73396465 -90.42538432 126.2305882 -91.92575073 124.72601318 C-94.23019325 122.41616521 -96.53998955 120.11176626 -98.85031128 117.80780029 C-100.31482515 116.34262645 -101.77902923 114.87714288 -103.2428894 113.41131592 C-103.9344664 112.72176315 -104.6260434 112.03221039 -105.33857727 111.32176208 C-105.97336502 110.68382217 -106.60815277 110.04588226 -107.26217651 109.38861084 C-107.82206772 108.82792404 -108.38195892 108.26723724 -108.95881653 107.68955994 C-111.49835933 104.90557105 -111.80077103 102.16329419 -111.74595642 98.43681335 C-111.16564691 95.71644576 -110.17189596 94.55852874 -108.29147339 92.52288818 C-107.65337738 91.82841583 -107.01528137 91.13394348 -106.35784912 90.41842651 C-102.80229512 86.69999244 -99.20591611 83.02882862 -95.5632019 79.39569092 C-94.74863022 78.58016251 -93.93405853 77.76463409 -93.09480286 76.9243927 C-91.38245372 75.21136709 -89.66885723 73.49958752 -87.95407104 71.78900146 C-85.3480255 69.18831165 -82.74736043 66.58232761 -80.14718628 63.97576904 C-78.47367866 62.3029223 -76.79986083 60.63038583 -75.1257019 58.95819092 C-74.35774796 58.18821274 -73.58979401 57.41823456 -72.79856873 56.62492371 C-69.4173762 53.25818101 -66.01845325 49.97272128 -62.39401245 46.86810303 C-57.70165162 42.82208084 -53.38042544 38.4277746 -49.0354538 34.01478958 C-47.54151755 32.49850692 -46.0433729 30.98649836 -44.54397583 29.47561646 C-40.28753288 25.18585758 -36.03562194 20.89167814 -31.79367065 16.58758545 C-29.18434925 13.94063957 -26.56778383 11.30104378 -23.94641876 8.66602707 C-22.95328217 7.66484762 -21.96292763 6.66090035 -20.97545624 5.65413284 C-19.59984904 4.25207236 -18.214069 2.86001465 -16.82785034 1.46844482 C-16.04367737 0.67459381 -15.25950439 -0.1192572 -14.4515686 -0.93716431 C-9.49448211 -5.08681545 -4.98980162 -3.84774956 0 0 Z " fill="#454E5C" transform="translate(119.27804565429688,361.75665283203125)"/>
<path d="M0 0 C0.33 0 0.66 0 1 0 C1.01458252 0.88558594 1.02916504 1.77117187 1.04418945 2.68359375 C1.48476876 26.62121705 2.1267629 50.65067037 14.28515625 72.09375 C16.38176913 76.23722737 16.28629697 79.59192552 15 84 C13.64628647 87.88910161 12.07231625 91.65905729 10.4375 95.4375 C9.76195068 97.02377197 9.76195068 97.02377197 9.07275391 98.64208984 C3.10665652 112.55454811 -3.24801166 125.99067914 -11 139 C-10.175 138.5875 -9.35 138.175 -8.5 137.75 C-6.69583312 136.84791656 -4.89159049 135.94598194 -3.08618164 135.04638672 C0.20346136 133.40580601 3.4862693 131.75434289 6.75390625 130.0703125 C17.60606797 124.50815877 28.72226416 119.63426894 40 115 C41.10214844 114.52361084 41.10214844 114.52361084 42.2265625 114.03759766 C46.25892414 112.37160555 48.84929211 111.48824058 53 113 C54.72880563 113.7566067 56.45631247 114.51737625 58.16259766 115.32348633 C67.80272691 119.87490341 77.60959251 122.71255073 88 125 C89.09957031 125.2475 90.19914063 125.495 91.33203125 125.75 C104.00457432 128.04540403 117.17923161 127.17328965 130 127 C130 127.33 130 127.66 130 128 C129.17201904 128.17015625 128.34403809 128.3403125 127.4909668 128.515625 C80.46213624 138.26696727 34.78934357 152.90252659 -5.62426758 179.46118164 C-9.05546096 181.68364715 -12.53331064 183.83331915 -16 186 C-29.53 172.47 -43.06 158.94 -57 145 C-55.62174762 141.55436904 -54.65050717 139.23942131 -52.671875 136.3046875 C-25.53490313 95.19063996 -9.02456935 48.25657515 0 0 Z " fill="#94A4A5" transform="translate(173,215)"/>
<path d="M0 0 C3.9264186 1.60148138 6.63967828 4.3003184 9.60546875 7.234375 C10.13014236 7.75002014 10.65481598 8.26566528 11.19538879 8.79693604 C12.29987696 9.88695303 13.40160608 10.9797719 14.50073242 12.07519531 C16.18027652 13.74282775 17.87756277 15.39088277 19.57617188 17.0390625 C20.649584 18.10301121 21.72188777 19.16807955 22.79296875 20.234375 C23.30022995 20.72210388 23.80749115 21.20983276 24.3301239 21.71234131 C27.55585572 24.98000816 28.90058699 27.38184988 29 32 C25.98701299 37.50649351 25.98701299 37.50649351 23 39 C20.375 39.5 20.375 39.5 17 39 C10.16151033 34.14980657 4.37753493 27.49556397 -1.5 21.5625 C-2.4178125 20.64017578 -3.335625 19.71785156 -4.28125 18.76757812 C-6.52315055 16.51400101 -8.762666 14.25810925 -11 12 C-10.06122074 10.8934059 -9.12079084 9.78821201 -8.1796875 8.68359375 C-7.39440674 7.76018188 -7.39440674 7.76018188 -6.59326172 6.81811523 C-4.4984209 4.42763415 -2.28027529 2.21320837 0 0 Z " fill="#393F4A" transform="translate(92,374)"/>
<path d="M0 0 C8.69162082 1.76778729 15.64668375 11.58636838 21.6875 17.6875 C22.55761719 18.56212891 23.42773438 19.43675781 24.32421875 20.33789062 C26.44763549 22.47297449 28.56866378 24.61037205 30.6875 26.75 C29.11150077 30.06115963 27.37575694 32.41702538 24.8125 35.0625 C24.13445312 35.78050781 23.45640625 36.49851562 22.7578125 37.23828125 C20.6875 38.75 20.6875 38.75 18.90844727 38.67431641 C15.65221689 37.31913467 13.50494689 34.95526053 11.08203125 32.47265625 C10.55735764 31.94610947 10.03268402 31.41956268 9.49211121 30.87705994 C8.38680279 29.76504065 7.2850924 28.64943499 6.18676758 27.53051758 C4.50268627 25.81523603 2.8081253 24.11089793 1.11132812 22.40820312 C0.03843561 21.32614205 -1.03385117 20.24347996 -2.10546875 19.16015625 C-2.61272995 18.64864517 -3.11999115 18.13713409 -3.6426239 17.61012268 C-8.14361546 13.01663403 -8.14361546 13.01663403 -8.6875 8.9375 C-8.3125 5.75 -8.3125 5.75 -6.25 2.875 C-3.3125 0.75 -3.3125 0.75 0 0 Z " fill="#393F4A" transform="translate(53.3125,453.25)"/>
</svg>
