<svg width="71" height="71" viewBox="0 0 71 71" fill="none" xmlns="http://www.w3.org/2000/svg">
<path d="M21.9174 65.193C21.6304 66.0067 21.3035 66.806 20.9475 67.5928C13.2844 64.1811 7.08629 58.1527 3.46328 50.5873C-0.159729 43.0219 -0.970919 34.4137 1.17501 26.3047C5.19183 27.3327 8.95048 29.1862 12.2115 31.7469C15.4726 34.3076 18.1645 37.5195 20.1159 41.1779C22.0672 44.8363 23.2352 48.8611 23.5453 52.9957C23.8555 57.1304 23.3011 61.2844 21.9174 65.193ZM25.6089 39.9942C27.6245 44.1772 28.7905 48.7184 29.0394 53.355C29.2882 57.9916 28.6149 62.6316 27.0585 67.0062C26.7679 67.83 26.4495 68.6383 26.1032 69.4311C34.2758 71.6542 42.9751 70.866 50.615 67.2102C58.2549 63.5544 64.3264 57.2745 67.7224 49.5157C62.8143 48.192 58.2502 45.823 54.3428 42.5711C50.4354 39.3192 47.277 35.2612 45.084 30.675C43.0683 26.4921 41.9023 21.9508 41.6535 17.3142C41.4047 12.6776 42.0779 8.03766 43.6344 3.66299C43.9249 2.83922 44.2433 2.03093 44.5896 1.2381C36.417 -0.984954 27.7177 -0.19672 20.0778 3.45908C12.438 7.11487 6.36646 13.3947 2.97039 21.1535C7.87857 22.4773 12.4426 24.8462 16.35 28.0981C20.2574 31.35 23.4158 35.408 25.6089 39.9942ZM49.9887 28.328C51.873 32.2666 54.5984 35.7439 57.9726 38.5148C61.3469 41.2856 65.2879 43.2824 69.5178 44.3646C71.6638 36.2555 70.8526 27.6474 67.2296 20.0819C63.6065 12.5165 57.4084 6.48811 49.7453 3.07651C47.938 7.04753 47.0231 11.3665 47.0651 15.7293C47.1072 20.0921 48.1052 24.3926 49.9887 28.328Z" fill="#013237"/>
</svg>
