<svg width="764" height="764" viewBox="0 0 764 764" fill="none" xmlns="http://www.w3.org/2000/svg">
<g clip-path="url(#clip0_183_476)">
<path d="M495.297 679.34L698.46 417.419L489.609 255.42L505.063 235.497L491.891 225.28L476.437 245.203L268.465 83.8864L65.3026 345.806L273.275 507.123L257.587 527.349L270.759 537.566L286.446 517.341L495.297 679.34ZM643.528 461.04L523.651 615.587L428.954 542.135L548.831 387.587L643.528 461.04ZM119.999 302.489L239.876 147.942L334.573 221.395L214.696 375.942L119.999 302.489ZM296.663 504.17L307.538 490.149L294.366 479.932L283.491 493.953L88.6895 342.853L109.781 315.66L298.436 461.993L308.653 448.821L227.867 386.158L285.762 311.519L366.548 374.182L376.765 361.01L295.979 298.347L347.744 231.611L428.53 294.274L438.747 281.102L250.092 134.769L271.419 107.275L466.22 258.375L455.791 271.82L468.963 282.037L479.392 268.592L675.071 420.373L653.745 447.868L465.09 301.535L454.873 314.707L535.659 377.37L483.894 444.107L403.108 381.444L392.891 394.616L473.677 457.279L415.782 531.918L334.996 469.255L324.778 482.427L513.433 628.76L492.341 655.952L296.662 504.171L296.663 504.17Z" fill="#013237"/>
<path d="M453.299 302.233L463.516 289.061L450.344 278.844L440.127 292.016L453.299 302.233Z" fill="#013237"/>
<path d="M437.633 322.43L447.85 309.258L434.678 299.041L424.461 312.213L437.633 322.43Z" fill="#013237"/>
<path d="M421.967 342.627L432.184 329.455L419.012 319.238L408.795 332.41L421.967 342.627Z" fill="#013237"/>
<path d="M406.302 362.823L416.519 349.651L403.347 339.434L393.13 352.606L406.302 362.823Z" fill="#013237"/>
<path d="M390.636 383.02L400.853 369.848L387.681 359.631L377.464 372.803L390.636 383.02Z" fill="#013237"/>
<path d="M374.97 403.216L385.187 390.044L372.015 379.827L361.798 392.999L374.97 403.216Z" fill="#013237"/>
<path d="M359.304 423.413L369.521 410.241L356.349 400.024L346.132 413.196L359.304 423.413Z" fill="#013237"/>
<path d="M343.639 443.609L353.856 430.437L340.684 420.22L330.467 433.392L343.639 443.609Z" fill="#013237"/>
<path d="M327.973 463.806L338.19 450.634L325.018 440.417L314.801 453.589L327.973 463.806Z" fill="#013237"/>
<path d="M312.307 484.003L322.524 470.831L309.352 460.614L299.135 473.785L312.307 484.003Z" fill="#013237"/>
</g>
<defs>
<clipPath id="clip0_183_476">
<rect width="544.187" height="544.187" fill="white" transform="translate(763.527 333.532) rotate(127.799)"/>
</clipPath>
</defs>
</svg>
