<svg width="129" height="129" viewBox="0 0 129 129" fill="none" xmlns="http://www.w3.org/2000/svg">
<path d="M123.625 64.5C123.625 97.1537 97.1537 123.625 64.5 123.625C31.8462 123.625 5.375 97.1537 5.375 64.5C5.375 31.8462 31.8462 5.375 64.5 5.375C97.1537 5.375 123.625 31.8462 123.625 64.5ZM16.1617 64.5C16.1617 91.1966 37.8035 112.838 64.5 112.838C91.1966 112.838 112.838 91.1966 112.838 64.5C112.838 37.8035 91.1966 16.1617 64.5 16.1617C37.8035 16.1617 16.1617 37.8035 16.1617 64.5Z" fill="#FEFEFE"/>
<path d="M64.5 26.875C61.5314 26.875 59.125 29.2814 59.125 32.25V67.0085C59.125 67.0085 59.125 68.4098 59.806 69.4638C60.2618 70.3577 60.9724 71.1344 61.906 71.6735L86.7374 86.0102C89.3083 87.4942 92.5957 86.6133 94.0797 84.0424C95.5637 81.4716 94.6833 78.1842 92.1124 76.7002L69.875 63.8614V32.25C69.875 29.2815 67.4686 26.875 64.5 26.875Z" fill="#FEFEFE"/>
</svg>
